<?xml version="1.0" standalone="no"?>
<!DOCTYPE svg PUBLIC "-//W3C//DTD SVG 20010904//EN"
 "http://www.w3.org/TR/2001/REC-SVG-20010904/DTD/svg10.dtd">
<svg version="1.0" xmlns="http://www.w3.org/2000/svg"
 width="1835.000000pt" height="940.000000pt" viewBox="0 0 1835.000000 940.000000"
 preserveAspectRatio="xMidYMid meet">

<g transform="translate(0.000000,940.000000) scale(0.100000,-0.100000)"
fill="#000000" stroke="none">
<path d="M0 4700 c0 -3127 3 -4700 10 -4700 7 0 10 1573 10 4700 0 3127 -3
4700 -10 4700 -7 0 -10 -1573 -10 -4700z"/>
<path d="M773 9148 c-17 -29 -69 -119 -116 -200 l-86 -148 234 0 234 0 -111
193 c-61 105 -114 196 -118 200 -4 5 -21 -16 -37 -45z"/>
<path d="M1128 9021 c48 -82 90 -147 93 -145 4 2 37 59 75 126 37 68 74 133
82 146 14 21 13 22 -19 22 -32 0 -37 -4 -84 -90 -28 -49 -52 -90 -55 -90 -3 0
-30 41 -59 90 -50 84 -55 90 -86 90 l-33 0 86 -149z"/>
<path d="M2310 9025 l0 -145 30 0 30 0 0 145 0 145 -30 0 -30 0 0 -145z"/>
<path d="M1401 9086 c-52 -29 -69 -121 -30 -169 38 -49 147 -58 185 -16 17 18
16 20 -1 33 -15 11 -24 11 -49 1 -34 -14 -64 -7 -85 19 -12 15 -5 16 78 16 88
0 91 1 91 23 0 32 -36 86 -66 97 -35 14 -94 12 -123 -4z m100 -46 c34 -19 20
-30 -38 -30 -55 0 -56 0 -38 20 20 22 46 25 76 10z"/>
<path d="M1630 8990 c0 -109 0 -110 24 -110 22 0 24 5 28 60 5 67 22 93 62 93
22 0 26 4 26 28 0 24 -4 29 -23 29 -12 0 -33 -7 -45 -16 -21 -14 -22 -14 -22
5 0 16 -6 21 -25 21 l-25 0 0 -110z"/>
<path d="M1833 9081 c-34 -21 -45 -45 -45 -97 0 -93 115 -144 198 -89 30 19
30 33 1 46 -17 8 -30 6 -51 -5 -35 -18 -66 -8 -84 27 -28 57 31 108 88 75 19
-11 32 -12 48 -5 12 6 22 13 22 16 -1 47 -118 67 -177 32z"/>
<path d="M2072 9072 c-56 -53 -49 -137 14 -179 36 -23 113 -23 149 1 l29 19
-23 19 c-18 13 -27 15 -37 8 -22 -19 -74 -15 -97 8 l-21 22 92 0 92 0 0 33
c-1 59 -49 97 -123 97 -35 0 -51 -6 -75 -28z m123 -42 c18 -20 17 -20 -38 -20
-58 0 -72 11 -39 29 27 16 57 13 77 -9z"/>
<path d="M6176 5534 c-13 -13 -16 -43 -16 -169 0 -148 1 -154 22 -169 20 -14
272 -16 2480 -16 2445 0 2458 0 2478 20 18 18 20 33 20 163 0 113 -3 147 -16
165 l-15 22 -2469 0 c-2231 0 -2470 -2 -2484 -16z m4962 -166 l-3 -163 -2475
0 -2475 0 -3 150 c-1 82 0 155 2 162 4 11 465 13 2481 13 l2475 0 -2 -162z"/>
<path d="M6959 5418 c-2 -82 -1 -109 5 -115 3 -4 6 28 6 70 0 43 -2 77 -5 77
-3 0 -5 -15 -6 -32z"/>
<path d="M7068 5384 c-1 -36 0 -71 4 -78 4 -6 8 24 8 67 0 42 -2 77 -4 77 -2
0 -6 -30 -8 -66z"/>
<path d="M8263 5375 c0 -44 2 -61 4 -37 2 23 2 59 0 80 -2 20 -4 1 -4 -43z"/>
<path d="M8683 5375 c0 -44 2 -61 4 -37 2 23 2 59 0 80 -2 20 -4 1 -4 -43z"/>
<path d="M6250 5370 l0 -70 53 2 52 2 -47 3 c-45 4 -48 6 -48 33 0 27 3 29 43
33 l42 4 -42 1 c-38 2 -43 5 -43 26 0 22 5 25 43 29 l42 4 -47 1 -48 2 0 -70z"/>
<path d="M7549 5418 c-2 -35 3 -104 9 -110 4 -4 5 14 3 39 -2 25 1 48 7 52 6
4 5 11 -4 19 -11 10 -14 10 -15 0z"/>
<path d="M8939 5418 c-2 -35 3 -104 9 -110 4 -4 5 14 3 39 -2 25 1 48 7 52 6
4 5 11 -4 19 -11 10 -14 10 -15 0z"/>
<path d="M6488 5415 c-9 -10 8 -109 20 -111 7 -1 8 0 2 3 -14 7 -13 90 2 95 8
3 6 6 -4 10 -9 4 -18 5 -20 3z"/>
<path d="M6383 5355 c0 -33 2 -45 4 -27 2 18 2 45 0 60 -2 15 -4 0 -4 -33z"/>
<path d="M6433 5399 c12 -7 18 -24 19 -57 l1 -47 4 43 c4 43 -9 72 -31 72 -6
0 -3 -5 7 -11z"/>
<path d="M6663 5355 c0 -33 2 -45 4 -27 2 18 2 45 0 60 -2 15 -4 0 -4 -33z"/>
<path d="M6900 5395 c-6 -8 -10 -20 -7 -27 4 -8 6 -7 6 4 1 9 9 22 19 27 9 6
12 11 6 11 -6 0 -17 -7 -24 -15z"/>
<path d="M7110 5355 c0 -32 2 -56 4 -54 8 8 10 98 3 105 -4 4 -7 -19 -7 -51z"/>
<path d="M8093 5355 c0 -33 2 -45 4 -27 2 18 2 45 0 60 -2 15 -4 0 -4 -33z"/>
<path d="M8993 5355 c0 -33 2 -45 4 -27 2 18 2 45 0 60 -2 15 -4 0 -4 -33z"/>
<path d="M9153 5355 c0 -33 2 -45 4 -27 2 18 2 45 0 60 -2 15 -4 0 -4 -33z"/>
<path d="M9588 5400 c12 -5 22 -14 22 -19 0 -5 -10 -12 -22 -14 -23 -4 -23 -4
-1 -6 14 -1 23 -9 26 -23 3 -15 5 -11 6 13 1 37 -13 59 -38 58 -10 0 -7 -4 7
-9z"/>
<path d="M9972 5370 c-2 -44 10 -70 32 -70 5 0 2 6 -7 13 -9 7 -18 31 -20 57
l-4 45 -1 -45z"/>
<path d="M10038 5364 c-2 -25 0 -51 4 -57 4 -7 8 14 8 46 0 68 -7 75 -12 11z"/>
<path d="M10083 5355 c0 -33 2 -45 4 -27 2 18 2 45 0 60 -2 15 -4 0 -4 -33z"/>
<path d="M10133 5399 c12 -7 18 -24 19 -57 l1 -47 4 43 c4 43 -9 72 -31 72 -6
0 -3 -5 7 -11z"/>
<path d="M10185 5400 c3 -5 12 -7 20 -3 21 7 19 13 -6 13 -11 0 -18 -4 -14
-10z"/>
<path d="M7007 5393 c-9 -9 -9 -71 1 -76 4 -3 7 15 7 39 0 24 0 44 -1 44 0 0
-4 -3 -7 -7z"/>
<path d="M7187 5393 c-10 -9 -9 -71 2 -77 4 -3 6 6 3 19 -4 23 -1 25 32 25 35
0 50 20 26 35 -6 3 -7 -1 -4 -9 5 -13 -1 -16 -26 -16 -24 0 -31 4 -26 15 6 16
3 19 -7 8z"/>
<path d="M7290 5380 c0 -11 4 -20 9 -20 5 0 7 9 4 20 -3 11 -7 20 -9 20 -2 0
-4 -9 -4 -20z"/>
<path d="M7390 5380 c0 -11 4 -20 9 -20 5 0 7 9 4 20 -3 11 -7 20 -9 20 -2 0
-4 -9 -4 -20z"/>
<path d="M7607 5393 c-9 -9 -9 -71 1 -76 4 -3 7 15 7 39 0 24 0 44 -1 44 0 0
-4 -3 -7 -7z"/>
<path d="M7665 5355 c0 -24 3 -41 8 -38 4 2 7 19 7 38 0 19 -3 36 -7 38 -5 3
-8 -14 -8 -38z"/>
<path d="M8524 5374 c-4 -14 -3 -34 2 -45 7 -15 9 -8 9 26 0 52 -2 55 -11 19z"/>
<path d="M9034 5374 c-4 -14 -3 -34 2 -45 7 -15 9 -8 9 26 0 52 -2 55 -11 19z"/>
<path d="M9317 5393 c-9 -9 -9 -71 1 -76 4 -3 7 15 7 39 0 24 0 44 -1 44 0 0
-4 -3 -7 -7z"/>
<path d="M9375 5355 c0 -24 3 -41 8 -38 4 2 7 19 7 38 0 19 -3 36 -7 38 -5 3
-8 -14 -8 -38z"/>
<path d="M9925 5355 c0 -24 3 -38 7 -32 4 7 8 21 8 32 0 11 -4 25 -8 32 -4 6
-7 -8 -7 -32z"/>
<path d="M6540 5358 c0 -25 11 -48 23 -48 7 0 7 4 -1 12 -23 23 -13 37 31 40
l42 3 -47 5 c-40 4 -48 2 -48 -12z"/>
<path d="M7903 5373 c-46 -4 -53 -17 -27 -49 15 -18 15 -18 5 3 -16 32 -15 33
29 33 22 0 40 5 40 10 0 6 -1 9 -2 8 -2 -1 -22 -3 -45 -5z"/>
<path d="M8420 5359 c0 -13 5 -31 10 -39 7 -11 8 -5 4 20 -8 43 -14 51 -14 19z"/>
<path d="M8720 5358 c0 -25 11 -48 23 -48 7 0 7 4 -1 12 -23 23 -13 37 31 40
l42 3 -47 5 c-40 4 -48 2 -48 -12z"/>
<path d="M8830 5359 c0 -13 5 -31 10 -39 7 -11 8 -5 4 20 -8 43 -14 51 -14 19z"/>
<path d="M6813 5363 c9 -2 23 -2 30 0 6 3 -1 5 -18 5 -16 0 -22 -2 -12 -5z"/>
<path d="M7798 5354 c25 -11 32 -19 27 -32 -5 -14 -4 -15 6 -4 16 15 -3 37
-41 46 -17 4 -15 1 8 -10z"/>
<path d="M8013 5363 c9 -2 23 -2 30 0 6 3 -1 5 -18 5 -16 0 -22 -2 -12 -5z"/>
<path d="M8151 5354 c0 -11 3 -14 6 -6 3 7 2 16 -1 19 -3 4 -6 -2 -5 -13z"/>
<path d="M8601 5354 c0 -11 3 -14 6 -6 3 7 2 16 -1 19 -3 4 -6 -2 -5 -13z"/>
<path d="M9111 5354 c0 -11 3 -14 6 -6 3 7 2 16 -1 19 -3 4 -6 -2 -5 -13z"/>
<path d="M9651 5354 c0 -11 3 -14 6 -6 3 7 2 16 -1 19 -3 4 -6 -2 -5 -13z"/>
<path d="M9751 5354 c0 -11 3 -14 6 -6 3 7 2 16 -1 19 -3 4 -6 -2 -5 -13z"/>
<path d="M9851 5354 c0 -11 3 -14 6 -6 3 7 2 16 -1 19 -3 4 -6 -2 -5 -13z"/>
<path d="M6891 5339 c-1 -19 26 -45 36 -35 3 3 1 6 -6 6 -6 0 -16 10 -21 23
-6 15 -9 17 -9 6z"/>
<path d="M7351 5334 c0 -11 3 -14 6 -6 3 7 2 16 -1 19 -3 4 -6 -2 -5 -13z"/>
<path d="M7451 5334 c0 -11 3 -14 6 -6 3 7 2 16 -1 19 -3 4 -6 -2 -5 -13z"/>
<path d="M6840 5333 c0 -6 8 -17 18 -24 16 -13 16 -13 2 6 -8 11 -16 22 -17
24 -2 2 -3 0 -3 -6z"/>
<path d="M8040 5333 c0 -6 8 -17 18 -24 16 -13 16 -13 2 6 -8 11 -16 22 -17
24 -2 2 -3 0 -3 -6z"/>
<path d="M9540 5331 c0 -10 29 -36 34 -30 1 2 -6 12 -16 22 -10 9 -18 13 -18
8z"/>
<path d="M6596 5315 c-11 -8 -15 -15 -9 -15 6 0 16 7 23 15 16 19 11 19 -14 0z"/>
<path d="M8776 5315 c-11 -8 -15 -15 -9 -15 6 0 16 7 23 15 16 19 11 19 -14 0z"/>
<path d="M11380 5530 c-18 -18 -20 -33 -20 -158 0 -108 3 -142 16 -160 l15
-22 384 0 c335 0 386 2 399 16 13 13 16 42 16 164 0 142 -1 150 -22 164 -19
14 -74 16 -395 16 -360 0 -374 -1 -393 -20z m785 -160 l0 -155 -392 -3 -393
-2 0 153 c0 85 3 157 7 160 4 4 180 6 392 5 l386 -3 0 -155z"/>
<path d="M12030 5380 c0 -47 4 -80 10 -80 6 0 10 33 10 80 0 47 -4 80 -10 80
-6 0 -10 -33 -10 -80z"/>
<path d="M11452 5439 c-39 -15 -25 -51 26 -68 31 -9 42 -18 40 -30 -4 -19 -46
-27 -61 -12 -6 6 -17 11 -25 11 -11 0 -12 -3 -3 -14 31 -38 111 -25 111 18 0
20 -8 27 -42 39 -49 16 -57 40 -15 45 15 2 27 -1 27 -7 0 -6 5 -11 10 -11 20
0 9 28 -12 34 -28 7 -27 7 -56 -5z"/>
<path d="M11592 5404 c-49 -34 -6 -123 47 -94 29 15 26 18 -11 16 -49 -2 -45
28 4 32 30 3 36 6 31 20 -6 17 -31 42 -43 42 -3 0 -16 -7 -28 -16z m52 -19 c4
-11 -2 -15 -24 -15 -29 0 -38 9 -23 23 12 12 41 7 47 -8z"/>
<path d="M11714 5405 c-18 -14 -17 -14 14 -9 24 5 32 3 32 -8 0 -9 -13 -18
-30 -22 -36 -7 -49 -31 -28 -53 13 -12 20 -13 37 -3 17 8 26 8 36 0 9 -7 15
-8 20 0 3 5 1 10 -4 10 -6 0 -11 18 -11 40 0 29 -5 42 -19 50 -25 13 -23 13
-47 -5z m44 -62 c-4 -23 -48 -31 -48 -10 0 9 6 18 13 20 25 11 38 7 35 -10z"/>
<path d="M11820 5360 c0 -71 16 -80 22 -12 5 51 1 72 -13 72 -5 0 -9 -27 -9
-60z"/>
<path d="M11865 5410 c-3 -5 -1 -10 4 -10 6 0 11 5 11 10 0 6 -2 10 -4 10 -3
0 -8 -4 -11 -10z"/>
<path d="M11922 5404 c-31 -22 -30 -69 3 -90 23 -15 27 -15 52 2 20 12 24 19
13 22 -8 3 -16 0 -18 -6 -2 -7 -12 -12 -22 -12 -21 0 -34 31 -25 60 7 22 41
27 48 8 2 -7 8 -9 13 -5 5 5 1 15 -10 23 -25 18 -27 17 -54 -2z"/>
<path d="M12076 5411 c-3 -5 1 -11 9 -15 10 -4 15 -20 15 -51 0 -25 5 -45 10
-45 6 0 10 24 10 54 0 40 -4 55 -16 60 -20 8 -22 8 -28 -3z"/>
<path d="M6248 5053 c6 -2 18 -2 25 0 6 3 1 5 -13 5 -14 0 -19 -2 -12 -5z"/>
<path d="M6650 4960 c0 -76 1 -80 23 -80 20 0 22 4 19 45 -3 37 -1 45 13 45
14 0 16 -8 13 -45 -3 -40 -1 -45 17 -45 19 0 20 5 15 53 -5 49 -7 52 -32 52
-24 -1 -28 3 -28 27 0 21 -5 28 -20 28 -18 0 -20 -7 -20 -80z"/>
<path d="M8295 4960 c0 -73 2 -80 20 -80 19 0 20 6 17 80 -3 67 -6 80 -20 80
-15 0 -17 -12 -17 -80z"/>
<path d="M8370 5026 c0 -9 7 -16 16 -16 9 0 14 5 12 12 -6 18 -28 21 -28 4z"/>
<path d="M6418 5023 c8 -3 12 -27 12 -68 0 -41 -4 -65 -12 -68 -7 -3 20 -6 60
-6 68 -1 72 0 72 22 -1 20 -2 20 -11 5 -6 -11 -22 -18 -39 -18 -27 0 -30 3
-30 30 0 23 5 30 19 30 11 0 22 -6 24 -12 3 -7 5 1 5 17 0 17 -2 24 -5 18 -2
-7 -13 -13 -24 -13 -14 0 -19 7 -19 30 0 25 4 30 25 30 13 0 29 -8 34 -17 9
-16 10 -16 11 5 0 21 -4 22 -67 21 -38 0 -62 -3 -55 -6z"/>
<path d="M7826 5009 c-54 -42 -18 -129 53 -129 50 0 69 11 73 41 4 28 3 29
-31 28 -20 0 -30 -3 -23 -6 18 -7 15 -53 -4 -53 -37 0 -54 20 -54 65 0 34 5
47 19 55 27 14 47 13 65 -6 14 -13 16 -13 16 -1 0 33 -75 37 -114 6z"/>
<path d="M6225 4995 c-14 -13 -25 -29 -25 -35 0 -14 46 -60 60 -60 14 0 60 46
60 60 0 14 -46 60 -60 60 -6 0 -22 -11 -35 -25z"/>
<path d="M6585 4997 c-5 -7 -8 -34 -5 -62 4 -44 8 -50 30 -53 20 -3 23 -1 13
9 -20 20 -17 87 5 92 16 4 16 5 0 6 -10 0 -18 6 -18 11 0 13 -13 12 -25 -3z"/>
<path d="M6791 4981 c-9 -6 -15 -25 -15 -46 0 -21 6 -40 15 -46 20 -12 56 -11
65 3 4 6 3 8 -4 5 -17 -11 -42 4 -42 24 0 14 7 19 25 19 27 0 33 18 13 38 -14
14 -37 15 -57 3z m39 -16 c0 -8 -4 -15 -10 -15 -5 0 -10 7 -10 15 0 8 5 15 10
15 6 0 10 -7 10 -15z"/>
<path d="M6879 4981 c9 -6 12 -23 10 -55 -4 -45 -4 -46 26 -45 16 0 24 3 18 6
-7 2 -13 20 -13 39 0 30 3 34 25 34 16 0 25 6 25 15 0 18 -21 20 -38 3 -9 -9
-12 -9 -12 0 0 7 -12 12 -27 12 -20 0 -24 -3 -14 -9z"/>
<path d="M6991 4981 c-9 -6 -15 -25 -15 -46 0 -21 6 -40 15 -46 20 -12 56 -11
65 3 4 6 3 8 -4 5 -17 -11 -42 4 -42 24 0 14 7 19 25 19 27 0 33 18 13 38 -14
14 -37 15 -57 3z m39 -16 c0 -8 -4 -15 -10 -15 -5 0 -10 7 -10 15 0 8 5 15 10
15 6 0 10 -7 10 -15z"/>
<path d="M7077 4958 c9 -77 9 -77 61 -77 l47 1 -3 54 c-3 42 -7 54 -20 54 -14
0 -16 -8 -13 -46 3 -40 1 -45 -15 -42 -14 2 -20 14 -22 46 -2 32 -7 42 -21 42
-14 0 -17 -7 -14 -32z"/>
<path d="M7205 4934 c0 -47 2 -54 20 -54 18 0 20 5 16 46 -3 40 -1 45 15 42
15 -3 19 -12 19 -46 0 -35 3 -42 20 -42 18 0 20 5 17 45 -3 37 -1 45 13 45 14
0 16 -8 13 -45 -3 -40 -1 -45 17 -45 19 0 20 5 15 53 l-5 52 -80 2 -80 2 0
-55z"/>
<path d="M7992 4978 c-7 -7 -12 -26 -12 -43 0 -36 15 -55 45 -55 30 0 45 19
45 55 0 36 -15 55 -45 55 -12 0 -26 -5 -33 -12z m46 -49 c-2 -19 -7 -33 -13
-32 -12 3 -19 49 -10 71 10 26 27 -2 23 -39z"/>
<path d="M8106 4974 c-35 -34 -9 -94 40 -94 13 0 24 4 24 10 0 5 -6 7 -14 4
-8 -3 -19 3 -25 15 -16 29 -14 31 19 31 31 0 39 17 18 38 -17 17 -44 15 -62
-4z m44 -15 c0 -5 -7 -9 -15 -9 -9 0 -12 6 -9 15 6 15 24 11 24 -6z"/>
<path d="M8195 4935 c0 -52 1 -55 25 -55 24 0 25 3 22 41 -4 39 -3 42 17 36
16 -4 21 -1 21 14 0 22 -10 24 -29 7 -11 -10 -14 -10 -18 0 -3 6 -12 12 -21
12 -14 0 -17 -10 -17 -55z"/>
<path d="M8365 4935 c0 -48 2 -55 20 -55 18 0 20 5 17 55 -3 43 -7 55 -20 55
-14 0 -17 -10 -17 -55z"/>
<path d="M6162 4960 c0 -14 2 -19 5 -12 2 6 2 18 0 25 -3 6 -5 1 -5 -13z"/>
<path d="M6352 4960 c0 -14 2 -19 5 -12 2 6 2 18 0 25 -3 6 -5 1 -5 -13z"/>
<path d="M6248 4863 c6 -2 18 -2 25 0 6 3 1 5 -13 5 -14 0 -19 -2 -12 -5z"/>
</g>
</svg>
